<svg width="17" height="17" viewBox="0 0 17 17" fill="none" xmlns="http://www.w3.org/2000/svg">
<g clip-path="url(#clip0_172_522)">
<path d="M7.79102 2.83333H2.83268C2.45696 2.83333 2.09662 2.98258 1.83095 3.24826C1.56527 3.51394 1.41602 3.87427 1.41602 4.24999V14.1667C1.41602 14.5424 1.56527 14.9027 1.83095 15.1684C2.09662 15.4341 2.45696 15.5833 2.83268 15.5833H12.7493C13.1251 15.5833 13.4854 15.4341 13.7511 15.1684C14.0168 14.9027 14.166 14.5424 14.166 14.1667V9.20833" stroke="#00AB4E" stroke-width="1.5" stroke-linecap="round" stroke-linejoin="round"/>
<path d="M13.1035 1.77084C13.3853 1.48904 13.7675 1.33073 14.166 1.33073C14.5645 1.33073 14.9467 1.48904 15.2285 1.77084C15.5103 2.05263 15.6686 2.43482 15.6686 2.83334C15.6686 3.23185 15.5103 3.61404 15.2285 3.89584L8.49935 10.625L5.66602 11.3333L6.37435 8.5L13.1035 1.77084Z" stroke="#00AB4E" stroke-width="1.5" stroke-linecap="round" stroke-linejoin="round"/>
</g>
<defs>
<clipPath id="clip0_172_522">
<rect width="17" height="17" fill="white"/>
</clipPath>
</defs>
</svg>
